<?xml version="1.0" encoding="utf-8"?>
<!-- Generator: Adobe Illustrator 16.0.3, SVG Export Plug-In . SVG Version: 6.00 Build 0)  -->
<!DOCTYPE svg PUBLIC "-//W3C//DTD SVG 1.1//EN" "http://www.w3.org/Graphics/SVG/1.1/DTD/svg11.dtd">
<svg version="1.1" id="Ebene_1" xmlns="http://www.w3.org/2000/svg" xmlns:xlink="http://www.w3.org/1999/xlink" x="0px" y="0px"
	 width="2834.65px" height="2834.65px" viewBox="0 0 2834.65 2834.65" enable-background="new 0 0 2834.65 2834.65"
	 xml:space="preserve">
<linearGradient id="SVGID_1_" gradientUnits="userSpaceOnUse" x1="636.751" y1="1417.3252" x2="2307.2666" y2="1417.3252">
	<stop  offset="0" style="stop-color:#A6549B"/>
	<stop  offset="0.9433" style="stop-color:#514999"/>
	<stop  offset="1" style="stop-color:#4453A0"/>
</linearGradient>
<circle fill="url(#SVGID_1_)" cx="1472.009" cy="1417.325" r="835.258"/>
<g>
	<path fill="#FFFFFF" d="M1042.974,1036.674h219.348c59.999,0,105.004,12.385,135.017,37.141
		c29.999,24.77,45.006,63.658,45.006,116.666c0,37.878-6.555,67.44-19.663,88.7c-13.108,21.274-32.484,38.015-58.114,50.249
		c64.082,22.148,96.128,69.625,96.128,142.446c0,60.6-16.03,103.993-48.064,130.211c-32.047,26.217-78.364,39.324-138.949,39.324
		h-230.709V1036.674z M1259.7,1096.099h-149.437v208.861h155.554c37.277,0,64.518-8.875,81.709-26.654
		c17.177-17.765,25.78-45.006,25.78-81.709c0-34.956-9.176-60.436-27.528-76.466
		C1327.427,1104.114,1298.725,1096.099,1259.7,1096.099z M1266.691,1363.511h-156.428v218.475h160.797
		c39.612,0,69.762-8.303,90.449-24.906c20.673-16.604,31.023-45.88,31.023-87.827c0-22.134-4.233-40.772-12.671-55.929
		c-8.452-15.143-19.663-25.917-33.645-32.334c-13.982-6.404-27.241-10.924-39.762-13.545
		C1293.918,1364.822,1280.674,1363.511,1266.691,1363.511z"/>
	<path fill="#FFFFFF" d="M1763.063,1195.723c58.838,0,100.062,16.754,123.656,50.249c23.596,33.509,35.393,90.162,35.393,169.973
		c0,87.977-14.72,149-44.131,183.082c-29.426,34.081-83.458,51.122-162.108,51.122c-15.73,0-35.693-0.874-59.862-2.622
		c-24.182-1.747-44.719-3.209-61.609-4.369l-24.469-2.621v-626.584h64.668v212.357
		C1678.868,1205.923,1721.689,1195.723,1763.063,1195.723z M1714.998,1591.599c57.09,0,94.818-12.958,113.17-38.889
		c18.352-25.917,27.527-71.509,27.527-136.765c0-58.251-7.291-99.761-21.847-124.53c-14.57-24.756-40.5-37.141-77.777-37.141
		c-18.065,0-37.141,2.185-57.24,6.554c-20.1,4.369-35.693,8.603-46.754,12.671l-17.478,6.117v307.611
		C1672.464,1590.151,1699.269,1591.599,1714.998,1591.599z"/>
</g>
<g>
	<path fill="#FFFFFF" d="M912.772,1584.607l-25.343,2.621c-17.478,1.175-39.625,2.336-66.416,3.496
		c-26.804,1.174-49.812,1.748-69.038,1.748c-41.374,0-70.786-11.647-88.263-34.956c-12.127-16.163-20.043-38.367-23.756-66.601
		c4.389,50.273,13.231,99.27,26.13,146.594c21.769,8.418,47.769,12.64,78.024,12.64c47.19,0,103.994-4.67,170.41-13.981
		L912.772,1584.607z"/>
	<path fill="#FFFFFF" d="M666.77,1285.734c19.512-23.294,48.501-34.956,86.953-34.956c39.025,0,67.14,11.074,84.331,33.208
		c17.177,22.148,25.78,60.012,25.78,113.606H636.989c-0.152,6.56-0.238,13.136-0.238,19.732c0,11.93,0.265,23.797,0.76,35.604
		c-0.007-0.965-0.017-1.927-0.017-2.902H925.88l3.496-49.812c0-70.485-14.57-122.196-43.695-155.117
		c-29.139-32.907-73.121-49.375-131.958-49.375c-36.25,0-67.102,6.792-92.559,20.372c-12.059,48.751-19.833,99.19-22.907,150.896
		C641.867,1331.213,651.368,1304.12,666.77,1285.734z"/>
</g>
<path fill="#FFFFFF" d="M2193.007,1195.723c-65.255,0-111.858,16.754-139.823,50.249c-27.965,33.509-41.947,89.875-41.947,169.099
	c0,86.816,12.959,147.688,38.889,182.645c25.917,34.956,72.971,52.434,141.135,52.434c20.417,0,48.808-2.374,85.139-7.111
	c5.321-19.003,9.997-38.275,13.982-57.8l-83.392,6.36c-52.434,0-86.952-12.521-103.557-37.577
	c-16.604-25.043-24.906-71.359-24.906-138.95c0-59.999,8.876-101.809,26.654-125.404c17.765-23.595,51.41-35.393,100.936-35.393
	c19.4,0,48.202,2.015,86.41,6.042c-3.585-18.848-7.812-37.468-12.641-55.845c-11.59-1.748-24.823-3.5-39.688-5.253
	C2220.385,1196.897,2204.654,1195.723,2193.007,1195.723z"/>
</svg>
